<svg viewBox="0 0 100 100" xmlns="http://www.w3.org/2000/svg">
  <!-- Background circle -->
  <circle cx="50" cy="50" r="48" fill="#1a1a2e"/>

  <!-- Outer circle glow -->
  <circle cx="50" cy="50" r="45" fill="none" stroke="rgba(255,255,255,0.2)" strokeWidth="2"/>

  <!-- Brain/Neural network design -->
  <circle cx="50" cy="50" r="38" fill="rgba(255,255,255,0.1)" stroke="white" strokeWidth="2"/>

  <!-- Neural nodes -->
  <circle cx="35" cy="35" r="4" fill="white"/>
  <circle cx="65" cy="35" r="4" fill="white"/>
  <circle cx="50" cy="50" r="5" fill="white"/>
  <circle cx="30" cy="60" r="4" fill="white"/>
  <circle cx="70" cy="60" r="4" fill="white"/>
  <circle cx="50" cy="75" r="4" fill="white"/>

  <!-- Neural connections -->
  <line x1="35" y1="35" x2="50" y2="50" stroke="white" strokeWidth="1.5" opacity="0.6"/>
  <line x1="65" y1="35" x2="50" y2="50" stroke="white" strokeWidth="1.5" opacity="0.6"/>
  <line x1="50" y1="50" x2="30" y2="60" stroke="white" strokeWidth="1.5" opacity="0.6"/>
  <line x1="50" y1="50" x2="70" y2="60" stroke="white" strokeWidth="1.5" opacity="0.6"/>
  <line x1="50" y1="50" x2="50" y2="75" stroke="white" strokeWidth="1.5" opacity="0.6"/>
  <line x1="30" y1="60" x2="50" y2="75" stroke="white" strokeWidth="1.5" opacity="0.6"/>
  <line x1="70" y1="60" x2="50" y2="75" stroke="white" strokeWidth="1.5" opacity="0.6"/>

  <!-- AI Sparkle effect -->
  <path d="M50 20 L52 25 L57 27 L52 29 L50 34 L48 29 L43 27 L48 25 Z" fill="white" opacity="0.8"/>
  <path d="M75 45 L76 48 L79 49 L76 50 L75 53 L74 50 L71 49 L74 48 Z" fill="white" opacity="0.7"/>
  <path d="M25 48 L26 51 L29 52 L26 53 L25 56 L24 53 L21 52 L24 51 Z" fill="white" opacity="0.7"/>
</svg>
